<svg width="844" height="323" viewBox="0 0 844 323" fill="none" xmlns="http://www.w3.org/2000/svg">
<g opacity="0.4" filter="url(#filter0_f)">
<path d="M325.384 226.116L442.419 156.681L559.454 223.7L442.419 293.135L325.384 226.116Z" fill="url(#paint0_linear)" fill-opacity="0.3"/>
</g>
<g opacity="0.4" filter="url(#filter1_f)">
<path d="M146.306 193.233L213.96 154.701L331.653 221.719L263.998 260.252L146.306 193.233Z" fill="url(#paint1_linear)" fill-opacity="0.3"/>
</g>
<path d="M213.455 135.741L280.681 97.2894L397.626 164.168L330.401 202.619L213.455 135.741Z" fill="#50E6FF"/>
<path d="M369.137 173.863L347.372 186.328H347.305C337.854 180.92 322.545 180.854 313.094 186.262L242.208 145.634C251.593 140.226 251.593 131.52 242.075 126.112C242.008 126.112 242.008 126.046 241.941 126.046L263.706 113.58C263.773 113.58 263.773 113.646 263.84 113.646C273.291 119.055 288.533 119.121 297.918 113.712L368.871 154.274C359.552 159.683 359.619 168.455 369.137 173.863Z" fill="#0078D4"/>
<path d="M327.313 150.095C327.351 143.21 317.637 137.577 305.616 137.512C293.596 137.448 283.821 142.976 283.783 149.861C283.746 156.745 293.459 162.379 305.48 162.443C317.5 162.508 327.276 156.979 327.313 150.095Z" fill="#50E6FF"/>
<path d="M330.4 202.619V222.406L213.455 155.528V135.741L330.4 202.619Z" fill="#0078D4"/>
<path d="M397.625 164.168V183.954L330.4 222.406V202.619L397.625 164.168Z" fill="#0078D4"/>
<path opacity="0.5" d="M397.625 164.168V183.954L330.4 222.406V202.619L397.625 164.168Z" fill="#50E6FF"/>
<path d="M442.447 137.265L509.672 98.8132L626.618 165.691L559.392 204.143L442.447 137.265Z" fill="#F7CF67"/>
<path d="M598.13 175.387L576.365 187.852H576.298C566.847 182.444 551.538 182.378 542.086 187.786L471.2 147.158C480.585 141.75 480.585 133.044 471.067 127.635C471.001 127.635 471.001 127.569 470.934 127.569L492.699 115.104C492.766 115.104 492.766 115.17 492.832 115.17C502.284 120.578 517.526 120.644 526.911 115.236L597.863 155.798C588.545 161.206 588.612 169.978 598.13 175.387Z" fill="#0078D4"/>
<path d="M556.308 151.618C556.346 144.734 546.632 139.1 534.611 139.036C522.591 138.971 512.816 144.5 512.778 151.384C512.74 158.269 522.454 163.902 534.475 163.967C546.495 164.031 556.271 158.503 556.308 151.618Z" fill="#50E6FF"/>
<path d="M559.392 204.143V223.929L442.447 157.051V137.265L559.392 204.143Z" fill="#DF7800"/>
<path d="M626.617 165.691V185.478L559.392 223.929V204.143L626.617 165.691Z" fill="#0078D4"/>
<path d="M626.617 165.691V185.478L559.392 223.929V204.143L626.617 165.691Z" fill="#FF9900"/>
<path d="M442.447 114.84L509.672 76.3884L626.618 143.267L559.392 181.718L442.447 114.84Z" fill="#F7CF67"/>
<path d="M598.13 152.962L576.365 165.428H576.298C566.847 160.019 551.538 159.953 542.086 165.362L471.2 124.733C480.585 119.325 480.585 110.619 471.067 105.211C471.001 105.211 471.001 105.145 470.934 105.145L492.699 92.6794C492.766 92.6794 492.766 92.7454 492.832 92.7454C502.284 98.1537 517.526 98.2196 526.911 92.8114L597.863 133.374C588.545 138.782 588.612 147.554 598.13 152.962Z" fill="#0078D4"/>
<path d="M556.308 129.194C556.346 122.309 546.632 116.676 534.611 116.611C522.591 116.547 512.816 122.075 512.778 128.96C512.74 135.844 522.454 141.478 534.475 141.542C546.495 141.607 556.271 136.078 556.308 129.194Z" fill="#50E6FF"/>
<path d="M559.392 181.718V201.505L442.447 134.627V114.84L559.392 181.718Z" fill="#DF7800"/>
<path d="M626.617 143.266V163.053L559.392 201.504V181.718L626.617 143.266Z" fill="#0078D4"/>
<path d="M626.617 143.266V163.053L559.392 201.504V181.718L626.617 143.266Z" fill="#FF9900"/>
<path d="M442.447 92.4152L509.672 53.9636L626.618 120.842L559.392 159.293L442.447 92.4152Z" fill="#F7CF67"/>
<path d="M598.13 130.538L576.365 143.003H576.298C566.847 137.595 551.538 137.529 542.086 142.937L471.2 102.309C480.585 96.9006 480.585 88.1946 471.067 82.7863C471.001 82.7863 471.001 82.7203 470.934 82.7203L492.699 70.2549C492.766 70.2549 492.766 70.3208 492.832 70.3208C502.284 75.7291 517.526 75.7951 526.911 70.3868L597.863 110.949C588.545 116.357 588.612 125.129 598.13 130.538Z" fill="#E69F4E"/>
<path d="M556.308 106.769C556.346 99.8848 546.632 94.2515 534.611 94.1869C522.591 94.1223 512.816 99.6509 512.778 106.535C512.74 113.42 522.454 119.053 534.475 119.118C546.495 119.182 556.271 113.654 556.308 106.769Z" fill="#50E6FF"/>
<path d="M559.392 159.294V179.08L442.447 112.202V92.4155L559.392 159.294Z" fill="#DF7800"/>
<path d="M626.617 120.842V140.628L559.392 179.08V159.293L626.617 120.842Z" fill="#0078D4"/>
<path d="M626.617 120.842V140.628L559.392 179.08V159.293L626.617 120.842Z" fill="#FF9900"/>
<path d="M442.447 69.991L509.672 31.5394L626.618 98.4175L559.392 136.869L442.447 69.991Z" fill="#F7CF67"/>
<path d="M598.13 108.113L576.365 120.578H576.298C566.847 115.17 551.538 115.104 542.086 120.512L471.2 79.8841C480.585 74.4758 480.585 65.7698 471.067 60.3615C471.001 60.3615 471.001 60.2955 470.934 60.2955L492.699 47.8301C492.766 47.8301 492.766 47.896 492.832 47.896C502.284 53.3043 517.526 53.3703 526.911 47.962L597.863 88.5242C588.545 93.9324 588.612 102.704 598.13 108.113Z" fill="#E69F4E"/>
<path d="M556.308 84.3446C556.346 77.4601 546.632 71.8268 534.611 71.7622C522.591 71.6977 512.816 77.2263 512.778 84.1107C512.74 90.9952 522.454 96.6285 534.475 96.6931C546.495 96.7577 556.271 91.2291 556.308 84.3446Z" fill="#50E6FF"/>
<path d="M559.392 114.324V134.111L442.447 67.2327V47.4463L559.392 114.324Z" fill="#DF7800"/>
<path d="M626.617 98.4172V118.204L559.392 156.655V136.869L626.617 98.4172Z" fill="#0078D4"/>
<path d="M626.617 98.4172V118.204L559.392 156.655V136.869L626.617 98.4172Z" fill="#FF9900"/>
<path d="M442.447 47.5662L509.673 9.11462L626.618 75.9927L559.393 114.444L442.447 47.5662Z" fill="#FFD875"/>
<path d="M598.13 85.6879L576.365 98.1534H576.298C566.847 92.7451 551.538 92.6791 542.086 98.0874L471.2 57.4593C480.585 52.051 480.585 43.345 471.067 37.9367C471.001 37.9367 471.001 37.8707 470.934 37.8707L492.699 25.4053C492.766 25.4053 492.766 25.4712 492.832 25.4712C502.284 30.8795 517.526 30.9455 526.911 25.5372L597.863 66.0994C588.545 71.5077 588.612 80.2796 598.13 85.6879Z" fill="#FF9900"/>
<path d="M556.308 61.9197C556.346 55.0352 546.632 49.4019 534.611 49.3373C522.591 49.2727 512.816 54.8013 512.778 61.6858C512.74 68.5703 522.454 74.2036 534.475 74.2682C546.495 74.3328 556.271 68.8042 556.308 61.9197Z" fill="#FFD875"/>
<path d="M559.392 136.989V156.776L442.447 89.8978V70.1113L559.392 136.989Z" fill="#DF7800"/>
<path d="M626.617 75.9927V95.7791L559.392 134.231V114.444L626.617 75.9927Z" fill="#0078D4"/>
<path d="M626.617 75.9927V95.7791L559.392 134.231V114.444L626.617 75.9927Z" fill="#FF9900"/>
<defs>
<filter id="filter0_f" x="323.734" y="155.031" width="237.37" height="139.754" filterUnits="userSpaceOnUse" color-interpolation-filters="sRGB">
<feFlood flood-opacity="0" result="BackgroundImageFix"/>
<feBlend mode="normal" in="SourceGraphic" in2="BackgroundImageFix" result="shape"/>
<feGaussianBlur stdDeviation="0.82509" result="effect1_foregroundBlur"/>
</filter>
<filter id="filter1_f" x="144.655" y="153.051" width="188.647" height="108.851" filterUnits="userSpaceOnUse" color-interpolation-filters="sRGB">
<feFlood flood-opacity="0" result="BackgroundImageFix"/>
<feBlend mode="normal" in="SourceGraphic" in2="BackgroundImageFix" result="shape"/>
<feGaussianBlur stdDeviation="0.82509" result="effect1_foregroundBlur"/>
</filter>
<linearGradient id="paint0_linear" x1="462.155" y1="199.075" x2="422.176" y2="282.996" gradientUnits="userSpaceOnUse">
<stop/>
<stop offset="0.822143" stop-opacity="0"/>
</linearGradient>
<linearGradient id="paint1_linear" x1="271.042" y1="187.343" x2="235.858" y2="245.541" gradientUnits="userSpaceOnUse">
<stop/>
<stop offset="0.822143" stop-opacity="0"/>
</linearGradient>
</defs>
</svg>
